<?xml version="1.0" encoding="UTF-8" standalone="no"?>
<!-- Created with Inkscape (http://www.inkscape.org/) -->

<svg
   width="200mm"
   height="120mm"
   viewBox="0 0 200 120"
   version="1.1"
   id="svg1"
   xml:space="preserve"
   inkscape:export-filename="bad people logo.svg"
   inkscape:export-xdpi="96"
   inkscape:export-ydpi="96"
   sodipodi:docname="bad choices logo black.svg"
   inkscape:version="1.4.3 (0d15f75, 2025-12-25)"
   xmlns:inkscape="http://www.inkscape.org/namespaces/inkscape"
   xmlns:sodipodi="http://sodipodi.sourceforge.net/DTD/sodipodi-0.dtd"
   xmlns="http://www.w3.org/2000/svg"
   xmlns:svg="http://www.w3.org/2000/svg"><sodipodi:namedview
     id="namedview1"
     pagecolor="#ffffff"
     bordercolor="#000000"
     borderopacity="0.25"
     inkscape:showpageshadow="2"
     inkscape:pageopacity="0.0"
     inkscape:pagecheckerboard="0"
     inkscape:deskcolor="#d1d1d1"
     inkscape:document-units="mm"
     inkscape:zoom="0.60258143"
     inkscape:cx="243.95043"
     inkscape:cy="163.46338"
     inkscape:window-width="1920"
     inkscape:window-height="991"
     inkscape:window-x="-9"
     inkscape:window-y="-9"
     inkscape:window-maximized="1"
     inkscape:current-layer="layer1"><inkscape:page
       x="0"
       y="0"
       width="200"
       height="120"
       id="page2"
       margin="0"
       bleed="0" /></sodipodi:namedview><defs
     id="defs1" /><g
     inkscape:label="Layer 1"
     inkscape:groupmode="layer"
     id="layer1"><path
       d="M 52.103858,28.290115 C 54.879147,24.888148 56.669657,20.769976 56.669657,16.293702 56.669657,6.2668513 48.164738,6.7103633e-5 35.004494,6.7103633e-5 H 3.6173089e-5 V 62.667895 H 37.600732 c 11.996413,0 22.739469,-7.430614 22.739469,-20.053705 0,-5.998206 -2.864815,-11.011633 -8.236343,-14.324075 z M 33.393035,16.293702 c 2.238138,0 3.939122,0.895255 3.939122,4.118173 0,2.059086 -1.163832,3.670544 -2.954341,3.670544 h -13.42882 v -7.788717 z m 2.148612,29.364354 H 20.948996 v -8.50492 h 14.4136 c 3.043867,0 4.207696,2.059087 4.207696,4.118173 0,2.775289 -1.521932,4.386747 -4.028645,4.386747 z m 76.275733,17.009839 h 22.56043 L 106.53538,6.7103633e-5 H 86.481679 L 58.639259,62.667895 h 22.470892 l 2.864815,-7.251563 h 24.977604 z m -21.307054,-23.903299 4.476273,-11.369735 1.521933,-4.386748 1.521926,4.386748 4.476282,11.369735 z M 164.99554,6.7103633e-5 h -29.9015 V 62.667895 h 31.24438 C 187.28739,62.667895 200,50.044804 200,31.065405 200,11.638379 186.75023,6.7103634e-5 164.99554,6.7103633e-5 Z M 164.10029,17.726111 c 8.4154,0 13.69739,4.74485 13.69739,13.965972 0,9.579226 -5.6401,13.070719 -12.35452,13.070719 h -8.32585 V 17.726111 Z"
       id="text1"
       style="font-size:55.6389px;font-family:'FONTSPRING DEMO - Modica Ultra';-inkscape-font-specification:'FONTSPRING DEMO - Modica Ultra, Normal';fill:#000000;fill-opacity:1;stroke-width:20.302;stroke-linecap:square;stroke-dashoffset:6.57638"
       aria-label="BAD" /><path
       id="rect2"
       style="fill:#0110a1;fill-opacity:1;stroke-width:2.83916;stroke-linecap:square;stroke-dashoffset:6.57638"
       d="M 3.0005639e-4,109.38404 H 199.99969 v 6.80045 H 3.0005639e-4 Z" /><path
       style="font-size:42.2744px;font-family:'FONTSPRING DEMO - Modica Ultra';-inkscape-font-specification:'FONTSPRING DEMO - Modica Ultra, Normal';stroke-width:1.03375;stroke-linecap:square;stroke-dashoffset:6.57638"
       d="m 30.522142,95.400081 -6.129788,-6.045239 c -2.451915,2.367366 -5.072928,3.17058 -7.355745,3.17058 -3.973794,0 -6.510258,-2.409641 -6.510258,-6.172063 0,-3.973793 2.790111,-6.256611 6.383435,-6.256611 2.325091,0 4.734732,0.972312 6.63708,3.086031 l 6.637081,-6.256611 c -2.832385,-3.255128 -7.39802,-5.791592 -13.485533,-5.791592 -9.596289,0 -16.698387964691,6.298885 -16.698387964691,15.176509 0,9.13127 7.482568564691,15.430155 16.952033964691,15.430155 7.059825,0 11.414088,-3.508775 13.570082,-6.341159 z M 52.25116,71.641869 V 82.210468 H 42.866244 V 71.641869 H 32.466742 V 101.23395 H 42.866244 V 90.665348 H 52.25116 V 101.23395 H 62.650662 V 71.641869 Z m 29.338427,-0.507293 c -9.723111,0 -16.952033,6.298885 -16.952033,15.303332 0,9.004447 7.228922,15.303332 16.952033,15.303332 9.680838,0 16.90976,-6.298885 16.90976,-15.303332 0,-9.004447 -7.228922,-15.303332 -16.90976,-15.303332 z m 0,21.81359 c -3.889244,0 -6.425708,-2.451916 -6.425708,-6.510258 0,-4.058342 2.536464,-6.594806 6.425708,-6.594806 3.804696,0 6.425709,2.536464 6.425709,6.594806 0,4.058342 -2.621013,6.510258 -6.425709,6.510258 z M 110.97027,71.641869 h -10.39951 v 29.592081 h 10.39951 z m 32.59352,23.758212 -6.12979,-6.045239 c -2.45191,2.367366 -5.07292,3.17058 -7.35574,3.17058 -3.9738,0 -6.51026,-2.409641 -6.51026,-6.172063 0,-3.973793 2.79011,-6.256611 6.38343,-6.256611 2.3251,0 4.73474,0.972312 6.63709,3.086031 l 6.63708,-6.256611 c -2.83239,-3.255128 -7.39802,-5.791592 -13.48554,-5.791592 -9.59629,0 -16.69839,6.298885 -16.69839,15.176509 0,9.13127 7.48257,15.430155 16.95204,15.430155 7.05982,0 11.41409,-3.508775 13.57008,-6.341159 z M 155.7388,79.843102 h 15.13423 v -8.201233 h -25.36464 v 29.592081 h 25.36464 V 92.948166 H 155.7388 v -2.705562 h 13.82373 V 82.464115 H 155.7388 Z m 28.49295,0.634116 c 0,-0.67639 0.84549,-0.972311 2.83238,-0.972311 2.28282,0 5.24203,0.380469 9.38492,2.071445 l 2.53646,-8.07441 c -3.50877,-1.521878 -7.35574,-2.367366 -11.45636,-2.367366 -7.77849,0 -13.52781,3.17058 -13.52781,10.061307 0,10.991343 15.43016,8.539428 15.43016,11.160441 0,0.760939 -1.6487,0.930037 -3.21286,0.930037 -3.55104,0 -7.52484,-0.887763 -10.90679,-2.705562 l -2.57874,7.736215 c 3.50878,1.944626 7.82077,3.508776 13.27416,3.508776 7.65167,0 13.99283,-3.086032 13.99283,-10.188131 0,-11.456362 -15.76835,-8.497154 -15.76835,-11.160441 z"
       id="text3"
       aria-label="CHOICES" /></g></svg>
